HIERARCHY
ROOT pelvis
{
  OFFSET 0 100 0
  CHANNELS 6 Xposition Yposition Zposition Zrotation Xrotation Yrotation
  JOINT pelvis_right_femur
  {
    OFFSET -10.78128 -3.44521 -0.5502486
    CHANNELS 3 Zrotation Xrotation Yrotation
    JOINT right_femur_tibia
    {
      OFFSET -0.8047443 -44.0398 -0.1307829
      CHANNELS 3 Zrotation Xrotation Yrotation
      JOINT right_tibia_foot
      {
        OFFSET 3.006224 -47.83518 -5
        CHANNELS 3 Zrotation Xrotation Yrotation
        End Site
        {
          OFFSET 0 -5 15
        }
      }
    }
  }
  JOINT pelvis_left_femur
  {
    OFFSET 10.78128 -3.44521 -0.5502486
    CHANNELS 3 Zrotation Xrotation Yrotation
    JOINT left_femur_tibia
    {
      OFFSET 0.8047443 -44.0398 -0.1307829
      CHANNELS 3 Zrotation Xrotation Yrotation
      JOINT left_tibia_foot
      {
        OFFSET -4.370144 -48.10324 -4.275266
        CHANNELS 3 Zrotation Xrotation Yrotation
        End Site
        {
          OFFSET 0 -5 15
        }
      }
    }
  }
  JOINT pelvis_spine1
  {
    OFFSET 0 6.468898 -3.129235
    CHANNELS 3 Zrotation Xrotation Yrotation
    JOINT spine1
    {
      OFFSET 0 23.15396 4.99043
      CHANNELS 3 Zrotation Xrotation Yrotation
      JOINT spine2
      {
        OFFSET 0 20.79997 -5.064912
        CHANNELS 3 Zrotation Xrotation Yrotation
        JOINT neck
        {
          OFFSET 0 14.38658 9.616178
          CHANNELS 3 Zrotation Xrotation Yrotation
          End Site
          {
            OFFSET 0 20 0
          }
        }
      }
      JOINT right_manubrium
      {
        OFFSET -5.722621 16.35077 3.967754
        CHANNELS 3 Zrotation Xrotation Yrotation
        JOINT right_clavicle
        {
          OFFSET -13.16364 1.694482 -4.693211
          CHANNELS 3 Zrotation Xrotation Yrotation
          JOINT right_humerus
          {
            OFFSET -28.5034 -0.3100689 -2.792744
            CHANNELS 3 Zrotation Xrotation Yrotation
            JOINT right_radius
            {
              OFFSET -25.15693 0.02248979 -1.271978
              CHANNELS 3 Zrotation Xrotation Yrotation
              End Site
              {
                OFFSET -15 0 0
              }
            }
          }
        }
      }
      JOINT left_manubrium
      {
        OFFSET 5.722621 16.35077 3.967754
        CHANNELS 3 Zrotation Xrotation Yrotation
        JOINT left_clavicle
        {
          OFFSET 13.16364 1.694482 -4.693211
          CHANNELS 3 Zrotation Xrotation Yrotation
          JOINT left_humerus
          {
            OFFSET 29.39168 -1.063119 -2.237045
            CHANNELS 3 Zrotation Xrotation Yrotation
            JOINT left_radius
            {
              OFFSET 24.59957 -0.9528479 0.9047498
              CHANNELS 3 Zrotation Xrotation Yrotation
              End Site
              {
                OFFSET 15 -0 -0
              }
            }
          }
        }
      }
    }
  }
}
MOTION
Frames: 13
Frame Time: 0.0416666666667
0 103.5113 0 1.747027 -2.099673 0.1054163 1.414182 -11.46873 7.562348 -0 37.75954 -0 -6.363783 -18.87711 -3.43708 -7.289357 11.47656 -24.58028 -0 5.533089 -0 6.217769 -16.58907 26.07299 -2.98027 -3.816658 5.022682 3.346485 10.03251 -8.052124 1.80824 21.75938 5.146449 1.624212 -26.21768 9.579834 5.592796 -19.70299 10.69296 86.84963 34.17022 -21.38168 -0 0 15.00502 -5.968192 7.861559 2.736008 5.709137 -20.05489 -1.634375 -95.35113 26.45769 23.69279 0 0 -14.00387 9.099659 16.92334 3.712076
0.2259685 103.6659 1.333896 1.394535 -1.55059 0.1010474 2.129497 -13.33249 8.078362 -0 37.34474 -0 -6.172776 -18.43676 -3.720719 -7.052839 11.59761 -24.28836 -0 5.388725 -0 5.650721 -17.57063 25.8233 -2.935672 -3.765145 5.024146 3.338235 10.0351 -8.044236 1.802768 21.72902 5.182673 1.658776 -26.24151 9.58707 5.589977 -19.68116 10.70168 86.87153 34.2168 -21.38434 -0 0 14.95802 -5.96101 7.877192 2.759705 5.714733 -20.08306 -1.640406 -95.29382 26.43326 23.64815 0 0 -14.14575 9.162708 16.83237 3.678921
0.4724224 103.6319 3.105898 0.4787707 -0.7206832 0.02055463 3.396122 -18.69987 7.698943 -0 34.43868 -0 -6.283535 -14.13978 -3.599814 -6.431638 11.46081 -21.9224 -0 5.682878 -0 5.786254 -18.81388 24.95508 -2.628772 -3.390477 5.047625 3.263831 10.08142 -7.964265 1.727444 21.57085 5.419004 1.897368 -26.31469 9.557956 5.576003 -19.50812 10.75967 87.0476 34.54995 -21.43775 -0 0 14.53863 -5.987855 7.955865 3.009784 5.656402 -20.2702 -1.829719 -94.92662 26.48423 23.4581 0 0 -15.28896 9.269587 16.08989 3.855306
0.7155849 103.4866 5.009964 0.06447857 0.1921932 -0.06863936 4.235978 -21.91044 8.090872 -0 32.44827 -0 -5.911997 -13.00044 -3.641804 -6.258157 11.41047 -21.12063 -0 5.733268 -0 6.109304 -19.65144 24.78287 -2.448286 -3.195342 5.036134 3.266766 10.09666 -7.983468 1.695323 21.42341 5.575133 2.051855 -26.45764 9.578366 5.564981 -19.42003 10.80492 87.22004 34.69802 -21.61442 -0 0 14.3156 -5.856389 7.963548 3.040317 5.696165 -20.44133 -1.887588 -94.71982 26.50438 23.29931 0 0 -16.07059 9.404445 15.70543 3.891325
0.9580697 103.2138 7.062183 -0.297479 1.368739 -0.1583079 5.180132 -25.54624 8.606489 -0 29.76 -0 -5.411335 -12.0037 -3.554977 -6.19191 11.4136 -20.47963 -0 5.770981 -0 6.651455 -20.56611 24.66819 -2.257871 -3.014713 5.004847 3.31506 10.11023 -8.065448 1.660789 21.23091 5.752055 2.23203 -26.69231 9.612226 5.552068 -19.34278 10.85871 87.49477 34.79905 -21.99611 -0 0 14.083 -5.55553 7.890544 2.963981 5.775176 -20.68866 -1.965772 -94.55601 26.66557 23.17126 0 0 -17.11158 9.458385 15.31872 4.075803
1.196167 102.8261 9.266731 -0.5759303 2.583826 -0.2069978 6.12421 -28.95636 9.141384 -0 27.00681 -0 -4.936189 -11.13025 -3.353522 -6.199185 11.54049 -20.10175 -0 5.812863 -0 7.010771 -21.49769 24.44523 -2.089568 -2.874503 4.968777 3.373308 10.11272 -8.161239 1.635423 21.03988 5.914812 2.393525 -26.93756 9.661297 5.53475 -19.28523 10.90726 87.76167 34.86755 -22.38488 -0 0 13.89291 -5.246161 7.814398 2.858145 5.876686 -20.92541 -2.011166 -94.41673 26.79687 23.04784 0 0 -18.06025 9.537877 15.00342 4.206945
1.427714 102.3397 11.6895 -0.8334706 3.859043 -0.1577648 7.1077 -32.366 9.584853 -0 23.99798 -0 -4.531032 -10.02809 -3.023364 -6.217016 11.85216 -19.80184 -0 5.941792 -0 6.965806 -22.53029 23.86972 -1.92084 -2.754532 4.929276 3.441421 10.1107 -8.275215 1.608734 20.84043 6.079555 2.558807 -27.20269 9.712403 5.513348 -19.2383 10.95409 88.05877 34.90767 -22.83994 -0 0 13.713 -4.900586 7.710299 2.722997 5.991801 -21.18114 -2.065143 -94.31208 26.99131 22.96353 0 0 -19.06698 9.557958 14.70742 4.423385
1.64904 101.7613 14.45589 -1.076764 5.036753 0.05255075 7.955455 -35.51235 9.646613 -0 20.71141 -0 -4.296823 -8.478518 -2.567869 -6.192843 12.43667 -19.39858 -0 6.310823 -0 6.258974 -23.56118 22.67575 -1.746241 -2.637615 4.895858 3.493169 10.10679 -8.375202 1.577084 20.65019 6.243683 2.721235 -27.43627 9.753879 5.488383 -19.18694 10.99887 88.34269 34.9541 -23.26056 -0 0 13.52541 -4.625212 7.635064 2.628743 6.100725 -21.42458 -2.120227 -94.19793 27.16226 22.88556 0 0 -20.02974 9.561409 14.40665 4.65215
1.852931 101.1041 17.75199 -1.318542 5.985945 0.4857794 8.483025 -38.07919 9.079502 -0 17.14054 -0 -4.288958 -6.4134 -2.03826 -6.072742 13.38402 -18.71612 -0 7.226123 -0 4.63679 -24.4027 20.61534 -1.553743 -2.512585 4.871366 3.518855 10.10615 -8.455731 1.533227 20.47245 6.412173 2.88851 -27.61911 9.770679 5.462549 -19.1198 11.04392 88.62183 35.01429 -23.65114 -0 0 13.30777 -4.449991 7.600699 2.596694 6.194487 -21.6626 -2.193448 -94.06975 27.33121 22.82246 0 0 -20.97739 9.50394 14.07911 4.95428
2.029394 100.4133 21.80722 -1.568657 6.504233 1.170652 8.527301 -39.45009 7.737606 -0 13.6164 -0 -4.548912 -3.948733 -1.548095 -5.801274 14.70006 -17.58786 -0 9.27069 -0 2.007238 -24.60261 17.62584 -1.336733 -2.364919 4.860668 3.500745 10.11475 -8.500639 1.470034 20.31859 6.585212 3.059542 -27.70956 9.74471 5.43954 -19.02004 11.09287 88.87948 35.11017 -23.96337 -0 0 13.03441 -4.458032 7.652752 2.6774 6.258782 -21.88478 -2.286346 -93.89372 27.45303 22.74914 0 0 -21.86403 9.384252 13.70153 5.318362
2.171803 99.81383 26.83889 -1.855455 6.33477 2.043263 8.190685 -38.77779 5.890252 -0 11.03316 -0 -5.05621 -1.45248 -1.300634 -5.317073 16.13506 -15.90172 -0 13.39156 -0 -1.324447 -23.41242 14.1124 -1.093798 -2.187639 4.867168 3.424783 10.13964 -8.502879 1.379961 20.20023 6.760468 3.234447 -27.66767 9.6528 5.424574 -18.87501 11.14987 89.10816 35.24685 -24.17474 -0 0 12.69118 -4.722946 7.825088 2.907969 6.28353 -22.08989 -2.403697 -93.65611 27.51867 22.65747 0 0 -22.65621 9.159243 13.26646 5.784492
2.2882 99.53597 32.90323 -2.216353 5.209159 2.853058 7.965478 -35.35212 4.41773 -0 10.79176 -0 -5.688305 0.412278 -1.5307 -4.582405 16.93562 -13.72113 -0 20.60521 -0 -4.416591 -20.03516 11.2056 -0.8400783 -1.97834 4.896169 3.275453 10.18944 -8.452736 1.257517 20.13817 6.926003 3.404761 -27.43895 9.46727 5.423787 -18.67775 11.21951 89.27755 35.42432 -24.22966 -0 0 12.28527 -5.347597 8.15939 3.336557 6.254661 -22.26451 -2.539889 -93.34275 27.49996 22.53204 0 0 -23.26039 8.787014 12.78136 6.372272
2.402127 99.82432 39.67041 -2.638176 3.200698 3.176519 8.273871 -29.64119 4.259308 -0 13.46229 -0 -6.257225 0.765022 -2.226911 -3.680147 15.92283 -11.53363 -0 30.75227 -0 -6.278859 -14.56846 10.09031 -0.6183781 -1.750537 4.954701 3.04659 10.26937 -8.343928 1.106543 20.15979 7.056767 3.552586 -26.98173 9.170106 5.441552 -18.44611 11.30234 89.33265 35.62056 -24.05707 -0 0 11.88206 -6.403681 8.66404 3.986951 6.158756 -22.38204 -2.679073 -92.97823 27.39727 22.3858 0 0 -23.53915 8.217509 12.2933 7.10007
